<svg width="136" height="116" viewBox="0 0 136 116" fill="none" xmlns="http://www.w3.org/2000/svg">
<mask id="path-1-outside-1_3_8" maskUnits="userSpaceOnUse" x="-8" y="14" width="142" height="88" fill="black">
<rect fill="white" x="-8" y="14" width="142" height="88"/>
<path d="M41.5 23.1818H60.1818L52.2727 71.0455C51.5 75.5909 49.7045 79.5909 46.8864 83.0455C44.0682 86.4773 40.5114 89.1591 36.2159 91.0909C31.9205 93 27.1818 93.9545 22 93.9545C17.5455 93.9545 13.5909 93.1818 10.1364 91.6364C6.70455 90.0682 4.15909 87.6136 2.5 84.2727C0.863636 80.9091 0.5 76.5455 1.40909 71.1818H20.3636C20.1364 72.9545 20.1818 74.4432 20.5 75.6477C20.8182 76.8295 21.4091 77.7273 22.2727 78.3409C23.1364 78.9318 24.2727 79.2273 25.6818 79.2273C27.0909 79.2273 28.3295 78.9205 29.3977 78.3068C30.4659 77.6705 31.3523 76.75 32.0568 75.5455C32.7614 74.3182 33.2727 72.8182 33.5909 71.0455L41.5 23.1818ZM125.115 49.3636H106.16C106.297 47.75 106.206 46.2955 105.888 45C105.569 43.7045 105.024 42.5909 104.251 41.6591C103.478 40.7045 102.467 39.9773 101.217 39.4773C99.967 38.9773 98.4784 38.7273 96.7511 38.7273C93.433 38.7273 90.467 39.5568 87.8534 41.2159C85.2398 42.8523 83.0693 45.2045 81.342 48.2727C79.6148 51.3182 78.3875 54.9545 77.6602 59.1818C77.0239 63.2727 77.0011 66.6705 77.592 69.375C78.2057 72.0795 79.3989 74.1023 81.1716 75.4432C82.967 76.7841 85.2966 77.4545 88.1602 77.4545C90.0693 77.4545 91.8193 77.2273 93.4102 76.7727C95.0239 76.3182 96.4557 75.6705 97.7057 74.8295C98.9784 73.9659 100.058 72.9432 100.944 71.7614C101.853 70.5568 102.547 69.2273 103.024 67.7727H122.115C121.388 70.7273 120.092 73.75 118.228 76.8409C116.365 79.9091 113.956 82.7386 111.001 85.3295C108.047 87.8977 104.569 89.9773 100.569 91.5682C96.5693 93.1591 92.0693 93.9545 87.0693 93.9545C80.5239 93.9545 74.8761 92.5227 70.1261 89.6591C65.3989 86.7955 61.967 82.6136 59.8307 77.1136C57.717 71.6136 57.2966 64.9091 58.5693 57C59.842 49.3636 62.3534 42.9659 66.1034 37.8068C69.8534 32.6477 74.4102 28.7614 79.7739 26.1477C85.1375 23.5341 90.842 22.2273 96.8875 22.2273C101.456 22.2273 105.547 22.8295 109.16 24.0341C112.797 25.2386 115.853 27 118.331 29.3182C120.831 31.6136 122.672 34.4432 123.853 37.8068C125.035 41.1705 125.456 45.0227 125.115 49.3636Z"/>
</mask>
<path d="M41.5 23.1818V15.1818H34.7135L33.607 21.8776L41.5 23.1818ZM60.1818 23.1818L68.0748 24.4861L69.6122 15.1818H60.1818V23.1818ZM52.2727 71.0455L60.1596 72.3862L60.1627 72.368L60.1657 72.3497L52.2727 71.0455ZM46.8864 83.0455L53.0689 88.1225L53.0771 88.1125L53.0853 88.1025L46.8864 83.0455ZM36.2159 91.0909L39.465 98.4014L39.4811 98.3942L39.4972 98.387L36.2159 91.0909ZM10.1364 91.6364L6.81143 98.9127L6.84038 98.9259L6.86944 98.9389L10.1364 91.6364ZM2.5 84.2727L-4.69388 87.7725L-4.67963 87.8017L-4.66514 87.8309L2.5 84.2727ZM1.40909 71.1818V63.1818H-5.34907L-6.47842 69.845L1.40909 71.1818ZM20.3636 71.1818L28.2987 72.1991L29.4548 63.1818H20.3636V71.1818ZM20.5 75.6477L12.7653 77.6909L12.7701 77.7092L12.7751 77.7275L20.5 75.6477ZM22.2727 78.3409L17.6391 84.8624L17.6968 84.9034L17.7553 84.9434L22.2727 78.3409ZM29.3977 78.3068L33.3827 85.2437L33.4377 85.2121L33.4922 85.1796L29.3977 78.3068ZM32.0568 75.5455L38.9623 79.5845L38.9787 79.5565L38.9948 79.5284L32.0568 75.5455ZM33.5909 71.0455L41.4651 72.4588L41.4749 72.4043L41.4839 72.3497L33.5909 71.0455ZM41.5 31.1818H60.1818V15.1818H41.5V31.1818ZM52.2889 21.8776L44.3798 69.7412L60.1657 72.3497L68.0748 24.4861L52.2889 21.8776ZM44.3859 69.7047C43.8367 72.9349 42.6005 75.6434 40.6874 77.9884L53.0853 88.1025C56.8086 83.5384 59.1633 78.2469 60.1596 72.3862L44.3859 69.7047ZM40.7038 77.9684C38.7159 80.3892 36.1747 82.3376 32.9346 83.7948L39.4972 98.387C44.848 95.9806 49.4204 92.5654 53.0689 88.1225L40.7038 77.9684ZM32.9668 83.7804C29.7947 85.1902 26.1779 85.9545 22 85.9545V101.955C28.1857 101.955 34.0462 100.81 39.465 98.4014L32.9668 83.7804ZM22 85.9545C18.4743 85.9545 15.6643 85.3453 13.4033 84.3338L6.86944 98.9389C11.5176 101.018 16.6166 101.955 22 101.955V85.9545ZM13.4613 84.36C11.677 83.5447 10.4981 82.3919 9.66514 80.7145L-4.66514 87.8309C-2.17995 92.8353 1.73205 96.5916 6.81143 98.9127L13.4613 84.36ZM9.69388 80.773C9.05101 79.4516 8.54514 76.9523 9.2966 72.5187L-6.47842 69.845C-7.54514 76.1386 -7.32374 82.3666 -4.69388 87.7725L9.69388 80.773ZM1.40909 79.1818H20.3636V63.1818H1.40909V79.1818ZM12.4286 70.1645C12.1225 72.5517 12.0955 75.1552 12.7653 77.6909L28.2347 73.6046C28.2575 73.6911 28.2312 73.6344 28.2235 73.3837C28.2159 73.1343 28.2284 72.7472 28.2987 72.1991L12.4286 70.1645ZM12.7751 77.7275C13.4974 80.4106 15.0299 83.0084 17.6391 84.8624L26.9064 71.8195C27.295 72.0956 27.6223 72.4415 27.8641 72.8089C28.0976 73.1636 28.1926 73.4478 28.2249 73.5679L12.7751 77.7275ZM17.7553 84.9434C20.339 86.7112 23.2077 87.2273 25.6818 87.2273V71.2273C25.3378 71.2273 25.9337 71.1524 26.7902 71.7385L17.7553 84.9434ZM25.6818 87.2273C28.2851 87.2273 30.9364 86.649 33.3827 85.2437L25.4127 71.37C25.5468 71.293 25.6671 71.2509 25.7441 71.2318C25.8156 71.2141 25.8046 71.2273 25.6818 71.2273V87.2273ZM33.4922 85.1796C35.8582 83.7701 37.6602 81.8108 38.9623 79.5845L25.1513 71.5064C25.0898 71.6115 25.0666 71.6259 25.1011 71.5901C25.1176 71.573 25.144 71.5478 25.1805 71.5187C25.2172 71.4895 25.2587 71.4606 25.3033 71.434L33.4922 85.1796ZM38.9948 79.5284C40.2621 77.321 41.0268 74.9003 41.4651 72.4588L25.7167 69.6321C25.5186 70.736 25.2607 71.3154 25.1188 71.5625L38.9948 79.5284ZM41.4839 72.3497L49.393 24.4861L33.607 21.8776L25.6979 69.7412L41.4839 72.3497ZM125.115 49.3636V57.3636H132.511L133.09 49.99L125.115 49.3636ZM106.16 49.3636L98.1886 48.69L97.4557 57.3636H106.16V49.3636ZM105.888 45L98.1184 46.9082L98.1184 46.9082L105.888 45ZM104.251 41.6591L98.0332 46.6927L98.0629 46.7294L98.0931 46.7658L104.251 41.6591ZM87.8534 41.2159L92.0987 47.9966L92.1198 47.9834L92.1408 47.97L87.8534 41.2159ZM81.342 48.2727L88.3007 52.2194L88.307 52.2084L88.3133 52.1973L81.342 48.2727ZM77.6602 59.1818L69.7761 57.8254L69.7652 57.8887L69.7553 57.9522L77.6602 59.1818ZM77.592 69.375L69.7764 71.0826L69.7833 71.1139L69.7903 71.1451L77.592 69.375ZM81.1716 75.4432L76.3455 81.8235L76.365 81.8383L76.3846 81.8529L81.1716 75.4432ZM93.4102 76.7727L91.2411 69.0724L91.2268 69.0764L91.2125 69.0805L93.4102 76.7727ZM97.7057 74.8295L102.171 81.4673L102.184 81.4584L102.198 81.4493L97.7057 74.8295ZM100.944 71.7614L94.5588 66.9421L94.5516 66.9517L94.5443 66.9614L100.944 71.7614ZM103.024 67.7727V59.7727H97.2292L95.4226 65.2785L103.024 67.7727ZM122.115 67.7727L129.883 69.6849L132.323 59.7727H122.115V67.7727ZM118.228 76.8409L125.066 80.9941L125.073 80.9829L125.079 80.9717L118.228 76.8409ZM111.001 85.3295L116.249 91.3674L116.263 91.3559L116.276 91.3444L111.001 85.3295ZM100.569 91.5682L97.6128 84.1346L97.6128 84.1346L100.569 91.5682ZM70.1261 89.6591L65.9812 96.5016L65.9884 96.506L65.9957 96.5103L70.1261 89.6591ZM59.8307 77.1136L52.3631 79.9834L52.3683 79.9968L52.3735 80.0102L59.8307 77.1136ZM58.5693 57L50.6782 55.6848L50.6745 55.7069L50.6709 55.729L58.5693 57ZM79.7739 26.1477L83.2783 33.3393L83.2783 33.3393L79.7739 26.1477ZM109.16 24.0341L106.63 31.6236L106.638 31.6259L106.645 31.6283L109.16 24.0341ZM118.331 29.3182L112.865 35.1595L112.892 35.1854L112.92 35.211L118.331 29.3182ZM123.853 37.8068L131.401 35.1549L131.401 35.1549L123.853 37.8068ZM125.115 41.3636H106.16V57.3636H125.115V41.3636ZM114.132 50.0373C114.326 47.7367 114.221 45.3895 113.657 43.0918L98.1184 46.9082C98.1904 47.2014 98.267 47.7633 98.1886 48.69L114.132 50.0373ZM113.657 43.0918C113.08 40.7434 112.03 38.5065 110.409 36.5524L98.0931 46.7658C98.0811 46.7513 98.0711 46.7374 98.0635 46.7257C98.056 46.714 98.0536 46.7086 98.0553 46.7121C98.0578 46.7173 98.0857 46.7751 98.1184 46.9082L113.657 43.0918ZM110.469 36.6255C108.755 34.5085 106.582 33.007 104.188 32.0495L98.2459 46.9051C98.3169 46.9335 98.3039 46.9369 98.2425 46.8928C98.1779 46.8464 98.1016 46.7773 98.0332 46.6927L110.469 36.6255ZM104.188 32.0495C101.767 31.0812 99.2209 30.7273 96.7511 30.7273V46.7273C97.736 46.7273 98.1667 46.8734 98.2459 46.9051L104.188 32.0495ZM96.7511 30.7273C92.0284 30.7273 87.5544 31.93 83.566 34.4618L92.1408 47.97C93.3796 47.1836 94.8375 46.7273 96.7511 46.7273V30.7273ZM83.6081 34.4352C79.7094 36.8762 76.6598 40.2822 74.3708 44.3482L88.3133 52.1973C89.4788 50.1269 90.7701 48.8284 92.0987 47.9966L83.6081 34.4352ZM74.3834 44.326C72.1108 48.3328 70.6259 52.8856 69.7761 57.8254L85.5444 60.5382C86.1491 57.0234 87.1187 54.3035 88.3007 52.2194L74.3834 44.326ZM69.7553 57.9522C69.0351 62.5823 68.8973 67.0589 69.7764 71.0826L85.4077 67.6674C85.105 66.282 85.0127 63.9632 85.5652 60.4115L69.7553 57.9522ZM69.7903 71.1451C70.7148 75.2195 72.7244 79.0845 76.3455 81.8235L85.9977 69.0629C85.9905 69.0574 85.9342 69.0196 85.8377 68.8558C85.7298 68.673 85.5496 68.2918 85.3938 67.6049L69.7903 71.1451ZM76.3846 81.8529C79.9049 84.482 84.0541 85.4545 88.1602 85.4545V69.4545C86.5391 69.4545 86.0292 69.0862 85.9586 69.0335L76.3846 81.8529ZM88.1602 85.4545C90.7011 85.4545 93.2025 85.1522 95.608 84.4649L91.2125 69.0805C90.4362 69.3023 89.4376 69.4545 88.1602 69.4545V85.4545ZM95.5793 84.473C97.9187 83.8141 100.142 82.8322 102.171 81.4673L93.2403 68.1918C92.7691 68.5088 92.1291 68.8223 91.2411 69.0724L95.5793 84.473ZM102.198 81.4493C104.172 80.1095 105.905 78.48 107.344 76.5614L94.5443 66.9614C94.2106 67.4064 93.7846 67.8223 93.2137 68.2097L102.198 81.4493ZM107.33 76.5806C108.777 74.663 109.877 72.5458 110.625 70.2669L95.4226 65.2785C95.2158 65.9087 94.9297 66.4506 94.5588 66.9421L107.33 76.5806ZM103.024 75.7727H122.115V59.7727H103.024V75.7727ZM114.347 65.8606C113.844 67.904 112.901 70.1839 111.377 72.7101L125.079 80.9717C127.284 77.3161 128.931 73.5505 129.883 69.6849L114.347 65.8606ZM111.391 72.6878C109.988 74.9968 108.126 77.2106 105.727 79.3147L116.276 91.3444C119.785 88.2667 122.741 84.8214 125.066 80.9941L111.391 72.6878ZM105.753 79.2917C103.543 81.213 100.859 82.8435 97.6128 84.1346L103.526 99.0018C108.28 97.111 112.551 94.5825 116.249 91.3674L105.753 79.2917ZM97.6128 84.1346C94.6926 85.296 91.2181 85.9545 87.0693 85.9545V101.955C92.9206 101.955 98.446 101.022 103.526 99.0018L97.6128 84.1346ZM87.0693 85.9545C81.7147 85.9545 77.5511 84.794 74.2566 82.8078L65.9957 96.5103C72.2012 100.251 79.333 101.955 87.0693 101.955V85.9545ZM74.2711 82.8166C71.1581 80.9309 68.8315 78.1911 67.2879 74.217L52.3735 80.0102C55.1026 87.0362 59.6396 92.66 65.9812 96.5016L74.2711 82.8166ZM67.2982 74.2439C65.8413 70.4528 65.3418 65.2676 66.4677 58.271L50.6709 55.729C49.2514 64.5506 49.5927 72.7745 52.3631 79.9834L67.2982 74.2439ZM66.4605 58.3152C67.5722 51.645 69.694 46.4733 72.5745 42.5105L59.6323 33.1031C55.0128 39.4585 52.1119 47.0822 50.6782 55.6848L66.4605 58.3152ZM72.5745 42.5105C75.6089 38.336 79.1731 35.3397 83.2783 33.3393L76.2695 18.9561C69.6474 22.183 64.0979 26.9595 59.6323 33.1031L72.5745 42.5105ZM83.2783 33.3393C87.5354 31.2649 92.0397 30.2273 96.8875 30.2273V14.2273C89.6443 14.2273 82.7396 15.8033 76.2695 18.9561L83.2783 33.3393ZM96.8875 30.2273C100.762 30.2273 103.976 30.7389 106.63 31.6236L111.69 16.4446C107.117 14.9202 102.149 14.2273 96.8875 14.2273V30.2273ZM106.645 31.6283C109.324 32.516 111.335 33.7285 112.865 35.1595L123.797 23.4769C120.372 20.2715 116.269 17.9613 111.676 16.4399L106.645 31.6283ZM112.92 35.211C114.403 36.5728 115.537 38.2698 116.306 40.4587L131.401 35.1549C129.807 30.6165 127.258 26.6545 123.741 23.4254L112.92 35.211ZM116.306 40.4587C117.046 42.5657 117.412 45.267 117.139 48.7373L133.09 49.99C133.499 44.7785 133.024 39.7752 131.401 35.1549L116.306 40.4587Z" fill="white" mask="url(#path-1-outside-1_3_8)"/>
<path d="M100.554 47.464L100.834 53.4575L103.328 53.3413L114.921 55.3042C119.817 53.074 130.042 49.2943 131.769 52.0169C133.496 54.7395 131.592 62.5365 130.424 66.0947L125.528 68.3249L109.828 64.0506L101.578 69.4402L94.7785 73.7612L85.3914 76.2005L83.1165 70.2999L82.8839 65.3054L84.368 54.2243L88.1968 50.5422C89.9565 48.9586 93.7754 45.7776 94.9729 45.7218C96.1704 45.666 99.1929 46.86 100.554 47.464Z" fill="white"/>
</svg>
